<mxfile host="65bd71144e" modified="2020-11-30T04:51:54.751Z" agent="5.0 (Windows NT 10.0; Win64; x64) AppleWebKit/537.36 (KHTML, like Gecko) Code/1.51.1 Chrome/83.0.4103.122 Electron/9.3.3 Safari/537.36" etag="7iNZJ8hlR9QlStBrfruc" version="13.6.5" pages="4">
    <diagram id="25vdB0TwPgLPHy0d5FgZ" name="Normal">
        <mxGraphModel dx="734" dy="469" grid="1" gridSize="10" guides="1" tooltips="1" connect="1" arrows="1" fold="1" page="1" pageScale="1" pageWidth="827" pageHeight="1169" math="0" shadow="0">
            <root>
                <mxCell id="0"/>
                <mxCell id="1" parent="0"/>
                <mxCell id="2" value="" style="rounded=0;whiteSpace=wrap;html=1;" parent="1" vertex="1">
                    <mxGeometry x="200" y="160" width="360" height="40" as="geometry"/>
                </mxCell>
                <mxCell id="3" value="" style="shape=process;whiteSpace=wrap;html=1;backgroundOutline=1;size=0.16666666666666666;fillColor=#000099;" parent="1" vertex="1">
                    <mxGeometry x="320" y="160" width="120" height="40" as="geometry"/>
                </mxCell>
                <mxCell id="6" value="" style="curved=1;endArrow=classic;html=1;" parent="1" edge="1">
                    <mxGeometry width="50" height="50" relative="1" as="geometry">
                        <mxPoint x="330" y="120" as="sourcePoint"/>
                        <mxPoint x="330" y="160" as="targetPoint"/>
                        <Array as="points"/>
                    </mxGeometry>
                </mxCell>
                <mxCell id="7" value="" style="curved=1;endArrow=classic;html=1;" parent="1" edge="1">
                    <mxGeometry width="50" height="50" relative="1" as="geometry">
                        <mxPoint x="430" y="120" as="sourcePoint"/>
                        <mxPoint x="430" y="160" as="targetPoint"/>
                        <Array as="points"/>
                    </mxGeometry>
                </mxCell>
                <mxCell id="VqMuQsF-AlABvWkBF8-x-13" value="Stack" style="shape=cylinder2;whiteSpace=wrap;html=1;boundedLbl=1;backgroundOutline=1;size=15;" parent="1" vertex="1">
                    <mxGeometry x="80" y="230" width="80" height="130" as="geometry"/>
                </mxCell>
                <mxCell id="uUwLWKJISb8az6aJNuvq-7" value="" style="ellipse;whiteSpace=wrap;html=1;strokeColor=#9673a6;fillColor=none;" parent="1" vertex="1">
                    <mxGeometry x="80" y="320" width="80" height="30" as="geometry"/>
                </mxCell>
                <mxCell id="uUwLWKJISb8az6aJNuvq-9" value="" style="curved=1;endArrow=classic;html=1;fillColor=#e1d5e7;strokeColor=#9673a6;" parent="1" edge="1">
                    <mxGeometry width="50" height="50" relative="1" as="geometry">
                        <mxPoint x="159" y="344" as="sourcePoint"/>
                        <mxPoint x="331" y="198" as="targetPoint"/>
                        <Array as="points">
                            <mxPoint x="328" y="336"/>
                        </Array>
                    </mxGeometry>
                </mxCell>
                <mxCell id="uUwLWKJISb8az6aJNuvq-11" value="" style="curved=1;endArrow=classic;html=1;strokeColor=#9673a6;exitX=0.928;exitY=1.067;exitDx=0;exitDy=0;exitPerimeter=0;entryX=0.992;entryY=0.756;entryDx=0;entryDy=0;entryPerimeter=0;fillColor=#e1d5e7;" parent="1" source="3" target="uUwLWKJISb8az6aJNuvq-7" edge="1">
                    <mxGeometry width="50" height="50" relative="1" as="geometry">
                        <mxPoint x="350" y="230" as="sourcePoint"/>
                        <mxPoint x="400" y="180" as="targetPoint"/>
                        <Array as="points">
                            <mxPoint x="380" y="410"/>
                        </Array>
                    </mxGeometry>
                </mxCell>
                <mxCell id="lX7pe8QZb0dWOzWKdRgh-7" value="{" style="text;html=1;strokeColor=none;fillColor=none;align=center;verticalAlign=middle;whiteSpace=wrap;rounded=0;" vertex="1" parent="1">
                    <mxGeometry x="310" y="169" width="40" height="20" as="geometry"/>
                </mxCell>
                <mxCell id="lX7pe8QZb0dWOzWKdRgh-8" value="}" style="text;html=1;strokeColor=none;fillColor=none;align=center;verticalAlign=middle;whiteSpace=wrap;rounded=0;" vertex="1" parent="1">
                    <mxGeometry x="410" y="169" width="40" height="20" as="geometry"/>
                </mxCell>
            </root>
        </mxGraphModel>
    </diagram>
    <diagram id="LvBawTbgWoi266w-_vLw" name="Complex">
        <mxGraphModel dx="734" dy="469" grid="1" gridSize="10" guides="1" tooltips="1" connect="1" arrows="1" fold="1" page="1" pageScale="1" pageWidth="827" pageHeight="1169" math="0" shadow="0">
            <root>
                <mxCell id="SG1zjA6Wv02mG_tyj4Yv-0"/>
                <mxCell id="SG1zjA6Wv02mG_tyj4Yv-1" parent="SG1zjA6Wv02mG_tyj4Yv-0"/>
                <mxCell id="5QjIOPsCh0vqQy3qwsEA-0" value="" style="rounded=0;whiteSpace=wrap;html=1;" parent="SG1zjA6Wv02mG_tyj4Yv-1" vertex="1">
                    <mxGeometry x="80" y="120" width="600" height="40" as="geometry"/>
                </mxCell>
                <mxCell id="5QjIOPsCh0vqQy3qwsEA-1" value="......" style="shape=process;whiteSpace=wrap;html=1;backgroundOutline=1;size=0.16666666666666666;fillColor=#000099;" parent="SG1zjA6Wv02mG_tyj4Yv-1" vertex="1">
                    <mxGeometry x="200" y="120" width="120" height="40" as="geometry"/>
                </mxCell>
                <mxCell id="5QjIOPsCh0vqQy3qwsEA-2" value="" style="shape=process;whiteSpace=wrap;html=1;backgroundOutline=1;fillColor=#004C99;size=0.1;" parent="SG1zjA6Wv02mG_tyj4Yv-1" vertex="1">
                    <mxGeometry x="440" y="120" width="200" height="40" as="geometry"/>
                </mxCell>
                <mxCell id="5QjIOPsCh0vqQy3qwsEA-3" value="..." style="shape=process;whiteSpace=wrap;html=1;backgroundOutline=1;size=0.25;fillColor=#33FF33;" parent="SG1zjA6Wv02mG_tyj4Yv-1" vertex="1">
                    <mxGeometry x="480" y="120" width="120" height="40" as="geometry"/>
                </mxCell>
                <mxCell id="5QjIOPsCh0vqQy3qwsEA-4" value="" style="curved=1;endArrow=classic;html=1;" parent="SG1zjA6Wv02mG_tyj4Yv-1" edge="1">
                    <mxGeometry width="50" height="50" relative="1" as="geometry">
                        <mxPoint x="210" y="80" as="sourcePoint"/>
                        <mxPoint x="210" y="120" as="targetPoint"/>
                        <Array as="points"/>
                    </mxGeometry>
                </mxCell>
                <mxCell id="5QjIOPsCh0vqQy3qwsEA-5" value="" style="curved=1;endArrow=classic;html=1;" parent="SG1zjA6Wv02mG_tyj4Yv-1" edge="1">
                    <mxGeometry width="50" height="50" relative="1" as="geometry">
                        <mxPoint x="310" y="80" as="sourcePoint"/>
                        <mxPoint x="310" y="120" as="targetPoint"/>
                        <Array as="points"/>
                    </mxGeometry>
                </mxCell>
                <mxCell id="5QjIOPsCh0vqQy3qwsEA-6" value="" style="curved=1;endArrow=classic;html=1;fillColor=#60a917;strokeColor=#2D7600;" parent="SG1zjA6Wv02mG_tyj4Yv-1" edge="1">
                    <mxGeometry width="50" height="50" relative="1" as="geometry">
                        <mxPoint x="450" y="80" as="sourcePoint"/>
                        <mxPoint x="450" y="120" as="targetPoint"/>
                        <Array as="points"/>
                    </mxGeometry>
                </mxCell>
                <mxCell id="5QjIOPsCh0vqQy3qwsEA-7" value="" style="curved=1;endArrow=classic;html=1;fillColor=#60a917;strokeColor=#2D7600;" parent="SG1zjA6Wv02mG_tyj4Yv-1" edge="1">
                    <mxGeometry width="50" height="50" relative="1" as="geometry">
                        <mxPoint x="630" y="80" as="sourcePoint"/>
                        <mxPoint x="630" y="120" as="targetPoint"/>
                        <Array as="points"/>
                    </mxGeometry>
                </mxCell>
                <mxCell id="5QjIOPsCh0vqQy3qwsEA-8" value="" style="curved=1;endArrow=classic;html=1;fillColor=#1ba1e2;strokeColor=#006EAF;" parent="SG1zjA6Wv02mG_tyj4Yv-1" edge="1">
                    <mxGeometry width="50" height="50" relative="1" as="geometry">
                        <mxPoint x="494" y="80" as="sourcePoint"/>
                        <mxPoint x="494" y="120" as="targetPoint"/>
                        <Array as="points"/>
                    </mxGeometry>
                </mxCell>
                <mxCell id="5QjIOPsCh0vqQy3qwsEA-9" value="" style="curved=1;endArrow=classic;html=1;fillColor=#1ba1e2;strokeColor=#006EAF;" parent="SG1zjA6Wv02mG_tyj4Yv-1" edge="1">
                    <mxGeometry width="50" height="50" relative="1" as="geometry">
                        <mxPoint x="585" y="80" as="sourcePoint"/>
                        <mxPoint x="585" y="120" as="targetPoint"/>
                        <Array as="points"/>
                    </mxGeometry>
                </mxCell>
                <mxCell id="hJpOMIlImMUR60fRIiLX-0" value="Stack&lt;br&gt;(index)" style="shape=cylinder2;whiteSpace=wrap;html=1;boundedLbl=1;backgroundOutline=1;size=15;" parent="SG1zjA6Wv02mG_tyj4Yv-1" vertex="1">
                    <mxGeometry x="40" y="244" width="80" height="122" as="geometry"/>
                </mxCell>
                <mxCell id="hJpOMIlImMUR60fRIiLX-1" value="" style="ellipse;whiteSpace=wrap;html=1;strokeColor=#9673a6;fillColor=none;" parent="SG1zjA6Wv02mG_tyj4Yv-1" vertex="1">
                    <mxGeometry x="40" y="322" width="80" height="30" as="geometry"/>
                </mxCell>
                <mxCell id="hJpOMIlImMUR60fRIiLX-2" value="" style="curved=1;endArrow=classic;html=1;entryX=0.089;entryY=1.083;entryDx=0;entryDy=0;entryPerimeter=0;exitX=0.983;exitY=0.844;exitDx=0;exitDy=0;exitPerimeter=0;fillColor=#e1d5e7;strokeColor=#9673a6;" parent="SG1zjA6Wv02mG_tyj4Yv-1" source="hJpOMIlImMUR60fRIiLX-1" target="5QjIOPsCh0vqQy3qwsEA-1" edge="1">
                    <mxGeometry width="50" height="50" relative="1" as="geometry">
                        <mxPoint x="119" y="356" as="sourcePoint"/>
                        <mxPoint x="291" y="210" as="targetPoint"/>
                        <Array as="points">
                            <mxPoint x="211" y="280"/>
                        </Array>
                    </mxGeometry>
                </mxCell>
                <mxCell id="hJpOMIlImMUR60fRIiLX-3" value="" style="curved=1;endArrow=classic;html=1;strokeColor=#9673a6;exitX=0.922;exitY=1.05;exitDx=0;exitDy=0;exitPerimeter=0;entryX=0.992;entryY=0.756;entryDx=0;entryDy=0;entryPerimeter=0;fillColor=#e1d5e7;" parent="SG1zjA6Wv02mG_tyj4Yv-1" source="5QjIOPsCh0vqQy3qwsEA-1" target="hJpOMIlImMUR60fRIiLX-1" edge="1">
                    <mxGeometry width="50" height="50" relative="1" as="geometry">
                        <mxPoint x="391.3599999999999" y="214.67999999999995" as="sourcePoint"/>
                        <mxPoint x="360" y="192" as="targetPoint"/>
                        <Array as="points">
                            <mxPoint x="270" y="340"/>
                        </Array>
                    </mxGeometry>
                </mxCell>
                <mxCell id="hJpOMIlImMUR60fRIiLX-7" value="Stack&lt;br&gt;(index)" style="shape=cylinder2;whiteSpace=wrap;html=1;boundedLbl=1;backgroundOutline=1;size=15;" parent="SG1zjA6Wv02mG_tyj4Yv-1" vertex="1">
                    <mxGeometry x="320" y="240" width="80" height="130" as="geometry"/>
                </mxCell>
                <mxCell id="hJpOMIlImMUR60fRIiLX-8" value="" style="ellipse;whiteSpace=wrap;html=1;strokeColor=#9673a6;fillColor=none;" parent="SG1zjA6Wv02mG_tyj4Yv-1" vertex="1">
                    <mxGeometry x="320" y="330" width="80" height="30" as="geometry"/>
                </mxCell>
                <mxCell id="hJpOMIlImMUR60fRIiLX-9" value="" style="curved=1;endArrow=classic;html=1;exitX=0.983;exitY=0.8;exitDx=0;exitDy=0;exitPerimeter=0;fillColor=#e1d5e7;strokeColor=#9673a6;" parent="SG1zjA6Wv02mG_tyj4Yv-1" source="hJpOMIlImMUR60fRIiLX-8" edge="1">
                    <mxGeometry width="50" height="50" relative="1" as="geometry">
                        <mxPoint x="404" y="354" as="sourcePoint"/>
                        <mxPoint x="450" y="161" as="targetPoint"/>
                        <Array as="points">
                            <mxPoint x="445" y="270"/>
                        </Array>
                    </mxGeometry>
                </mxCell>
                <mxCell id="hJpOMIlImMUR60fRIiLX-11" value="" style="curved=1;endArrow=classic;html=1;exitX=1;exitY=0.749;exitDx=0;exitDy=0;exitPerimeter=0;entryX=0.25;entryY=1;entryDx=0;entryDy=0;fillColor=#fff2cc;strokeColor=#d6b656;" parent="SG1zjA6Wv02mG_tyj4Yv-1" source="hJpOMIlImMUR60fRIiLX-7" target="5QjIOPsCh0vqQy3qwsEA-2" edge="1">
                    <mxGeometry width="50" height="50" relative="1" as="geometry">
                        <mxPoint x="408.6400000000001" y="364" as="sourcePoint"/>
                        <mxPoint x="455" y="171" as="targetPoint"/>
                        <Array as="points">
                            <mxPoint x="455" y="280"/>
                        </Array>
                    </mxGeometry>
                </mxCell>
                <mxCell id="hJpOMIlImMUR60fRIiLX-12" value="" style="ellipse;whiteSpace=wrap;html=1;strokeColor=#d6b656;fillColor=none;" parent="SG1zjA6Wv02mG_tyj4Yv-1" vertex="1">
                    <mxGeometry x="320" y="322" width="80" height="30" as="geometry"/>
                </mxCell>
                <mxCell id="U0qPm-xERY6U91ur3f5A-0" value="" style="curved=1;endArrow=classic;html=1;strokeColor=#d6b656;exitX=0.872;exitY=1.017;exitDx=0;exitDy=0;exitPerimeter=0;entryX=1;entryY=0.5;entryDx=0;entryDy=0;fillColor=#fff2cc;" parent="SG1zjA6Wv02mG_tyj4Yv-1" source="5QjIOPsCh0vqQy3qwsEA-3" target="hJpOMIlImMUR60fRIiLX-12" edge="1">
                    <mxGeometry width="50" height="50" relative="1" as="geometry">
                        <mxPoint x="671.9999999999999" y="201.33999999999995" as="sourcePoint"/>
                        <mxPoint x="400" y="341.3399999999999" as="targetPoint"/>
                        <Array as="points">
                            <mxPoint x="540" y="300"/>
                        </Array>
                    </mxGeometry>
                </mxCell>
                <mxCell id="U0qPm-xERY6U91ur3f5A-1" value="" style="curved=1;endArrow=classic;html=1;strokeColor=#9673a6;exitX=0.953;exitY=1.033;exitDx=0;exitDy=0;exitPerimeter=0;entryX=0.983;entryY=0.733;entryDx=0;entryDy=0;entryPerimeter=0;fillColor=#e1d5e7;" parent="SG1zjA6Wv02mG_tyj4Yv-1" source="5QjIOPsCh0vqQy3qwsEA-2" target="hJpOMIlImMUR60fRIiLX-8" edge="1">
                    <mxGeometry width="50" height="50" relative="1" as="geometry">
                        <mxPoint x="636.4000000000001" y="160" as="sourcePoint"/>
                        <mxPoint x="420" y="390" as="targetPoint"/>
                        <Array as="points">
                            <mxPoint x="613" y="360"/>
                        </Array>
                    </mxGeometry>
                </mxCell>
                <mxCell id="U0qPm-xERY6U91ur3f5A-2" value="A" style="text;html=1;strokeColor=none;fillColor=none;align=center;verticalAlign=middle;whiteSpace=wrap;rounded=0;" parent="SG1zjA6Wv02mG_tyj4Yv-1" vertex="1">
                    <mxGeometry x="190" y="130" width="40" height="20" as="geometry"/>
                </mxCell>
                <mxCell id="U0qPm-xERY6U91ur3f5A-3" value="A" style="text;html=1;strokeColor=none;fillColor=none;align=center;verticalAlign=middle;whiteSpace=wrap;rounded=0;" parent="SG1zjA6Wv02mG_tyj4Yv-1" vertex="1">
                    <mxGeometry x="431" y="130" width="40" height="20" as="geometry"/>
                </mxCell>
                <mxCell id="U0qPm-xERY6U91ur3f5A-4" value="&lt;font color=&quot;#0000ff&quot;&gt;B&lt;/font&gt;" style="text;html=1;strokeColor=none;fillColor=none;align=center;verticalAlign=middle;whiteSpace=wrap;rounded=0;" parent="SG1zjA6Wv02mG_tyj4Yv-1" vertex="1">
                    <mxGeometry x="475" y="130" width="40" height="20" as="geometry"/>
                </mxCell>
                <mxCell id="U0qPm-xERY6U91ur3f5A-5" value="&lt;font color=&quot;#0000ff&quot;&gt;b&lt;/font&gt;" style="text;html=1;strokeColor=none;fillColor=none;align=center;verticalAlign=middle;whiteSpace=wrap;rounded=0;" parent="SG1zjA6Wv02mG_tyj4Yv-1" vertex="1">
                    <mxGeometry x="565" y="130" width="40" height="20" as="geometry"/>
                </mxCell>
                <mxCell id="U0qPm-xERY6U91ur3f5A-6" value="a" style="text;html=1;strokeColor=none;fillColor=none;align=center;verticalAlign=middle;whiteSpace=wrap;rounded=0;" parent="SG1zjA6Wv02mG_tyj4Yv-1" vertex="1">
                    <mxGeometry x="611" y="130" width="40" height="20" as="geometry"/>
                </mxCell>
                <mxCell id="U0qPm-xERY6U91ur3f5A-7" value="a" style="text;html=1;strokeColor=none;fillColor=none;align=center;verticalAlign=middle;whiteSpace=wrap;rounded=0;" parent="SG1zjA6Wv02mG_tyj4Yv-1" vertex="1">
                    <mxGeometry x="290" y="130" width="40" height="20" as="geometry"/>
                </mxCell>
                <mxCell id="U0qPm-xERY6U91ur3f5A-8" value="A" style="text;html=1;strokeColor=none;fillColor=none;align=center;verticalAlign=middle;whiteSpace=wrap;rounded=0;" parent="SG1zjA6Wv02mG_tyj4Yv-1" vertex="1">
                    <mxGeometry x="329" y="350" width="40" height="20" as="geometry"/>
                </mxCell>
                <mxCell id="U0qPm-xERY6U91ur3f5A-9" value="&lt;font&gt;B&lt;/font&gt;" style="text;html=1;align=center;verticalAlign=middle;whiteSpace=wrap;rounded=0;fontColor=#FFFFFF;" parent="SG1zjA6Wv02mG_tyj4Yv-1" vertex="1">
                    <mxGeometry x="350" y="340" width="40" height="20" as="geometry"/>
                </mxCell>
                <mxCell id="U0qPm-xERY6U91ur3f5A-10" value="A" style="text;html=1;strokeColor=none;fillColor=none;align=center;verticalAlign=middle;whiteSpace=wrap;rounded=0;" parent="SG1zjA6Wv02mG_tyj4Yv-1" vertex="1">
                    <mxGeometry x="60" y="340" width="40" height="20" as="geometry"/>
                </mxCell>
                <mxCell id="MafQClCjhzlh5smGxb_K-0" value="{" style="text;html=1;strokeColor=none;fillColor=none;align=center;verticalAlign=middle;whiteSpace=wrap;rounded=0;" vertex="1" parent="SG1zjA6Wv02mG_tyj4Yv-1">
                    <mxGeometry x="189" y="50" width="40" height="20" as="geometry"/>
                </mxCell>
                <mxCell id="MafQClCjhzlh5smGxb_K-1" value="}" style="text;html=1;strokeColor=none;fillColor=none;align=center;verticalAlign=middle;whiteSpace=wrap;rounded=0;" vertex="1" parent="SG1zjA6Wv02mG_tyj4Yv-1">
                    <mxGeometry x="289" y="50" width="40" height="20" as="geometry"/>
                </mxCell>
                <mxCell id="MafQClCjhzlh5smGxb_K-2" value="{" style="text;html=1;strokeColor=none;fillColor=none;align=center;verticalAlign=middle;whiteSpace=wrap;rounded=0;" vertex="1" parent="SG1zjA6Wv02mG_tyj4Yv-1">
                    <mxGeometry x="475" y="50" width="40" height="20" as="geometry"/>
                </mxCell>
                <mxCell id="MafQClCjhzlh5smGxb_K-3" value="}" style="text;html=1;strokeColor=none;fillColor=none;align=center;verticalAlign=middle;whiteSpace=wrap;rounded=0;" vertex="1" parent="SG1zjA6Wv02mG_tyj4Yv-1">
                    <mxGeometry x="565" y="50" width="40" height="20" as="geometry"/>
                </mxCell>
                <mxCell id="MafQClCjhzlh5smGxb_K-4" value="{" style="text;html=1;strokeColor=none;fillColor=none;align=center;verticalAlign=middle;whiteSpace=wrap;rounded=0;" vertex="1" parent="SG1zjA6Wv02mG_tyj4Yv-1">
                    <mxGeometry x="431" y="50" width="40" height="20" as="geometry"/>
                </mxCell>
                <mxCell id="MafQClCjhzlh5smGxb_K-5" value="}" style="text;html=1;strokeColor=none;fillColor=none;align=center;verticalAlign=middle;whiteSpace=wrap;rounded=0;" vertex="1" parent="SG1zjA6Wv02mG_tyj4Yv-1">
                    <mxGeometry x="611" y="50" width="40" height="20" as="geometry"/>
                </mxCell>
            </root>
        </mxGraphModel>
    </diagram>
    <diagram id="FLka0T2SDDRbSWFS7SYd" name="Empty">
        <mxGraphModel dx="734" dy="469" grid="1" gridSize="10" guides="1" tooltips="1" connect="1" arrows="1" fold="1" page="1" pageScale="1" pageWidth="827" pageHeight="1169" math="0" shadow="0">
            <root>
                <mxCell id="8Ahr5EPA_3hy_OYwfrjX-0"/>
                <mxCell id="8Ahr5EPA_3hy_OYwfrjX-1" parent="8Ahr5EPA_3hy_OYwfrjX-0"/>
                <mxCell id="zL_X2VONhH5JatA1CUuz-0" value="" style="rounded=0;whiteSpace=wrap;html=1;" vertex="1" parent="8Ahr5EPA_3hy_OYwfrjX-1">
                    <mxGeometry x="200" y="160" width="360" height="40" as="geometry"/>
                </mxCell>
                <mxCell id="zL_X2VONhH5JatA1CUuz-1" value="No operation" style="shape=process;whiteSpace=wrap;html=1;backgroundOutline=1;size=0.16666666666666666;fillColor=#60a917;strokeColor=#2D7600;fontColor=#ffffff;" vertex="1" parent="8Ahr5EPA_3hy_OYwfrjX-1">
                    <mxGeometry x="320" y="160" width="120" height="40" as="geometry"/>
                </mxCell>
                <mxCell id="zL_X2VONhH5JatA1CUuz-2" value="" style="curved=1;endArrow=classic;html=1;" edge="1" parent="8Ahr5EPA_3hy_OYwfrjX-1">
                    <mxGeometry width="50" height="50" relative="1" as="geometry">
                        <mxPoint x="330" y="120" as="sourcePoint"/>
                        <mxPoint x="330" y="160" as="targetPoint"/>
                        <Array as="points"/>
                    </mxGeometry>
                </mxCell>
                <mxCell id="zL_X2VONhH5JatA1CUuz-3" value="" style="curved=1;endArrow=classic;html=1;" edge="1" parent="8Ahr5EPA_3hy_OYwfrjX-1">
                    <mxGeometry width="50" height="50" relative="1" as="geometry">
                        <mxPoint x="430" y="120" as="sourcePoint"/>
                        <mxPoint x="430" y="160" as="targetPoint"/>
                        <Array as="points"/>
                    </mxGeometry>
                </mxCell>
                <mxCell id="zL_X2VONhH5JatA1CUuz-4" value="Stack" style="shape=cylinder2;whiteSpace=wrap;html=1;boundedLbl=1;backgroundOutline=1;size=15;" vertex="1" parent="8Ahr5EPA_3hy_OYwfrjX-1">
                    <mxGeometry x="80" y="230" width="80" height="130" as="geometry"/>
                </mxCell>
                <mxCell id="zL_X2VONhH5JatA1CUuz-5" value="" style="ellipse;whiteSpace=wrap;html=1;strokeColor=#9673a6;fillColor=none;" vertex="1" parent="8Ahr5EPA_3hy_OYwfrjX-1">
                    <mxGeometry x="80" y="320" width="80" height="30" as="geometry"/>
                </mxCell>
                <mxCell id="zL_X2VONhH5JatA1CUuz-6" value="" style="curved=1;endArrow=classic;html=1;fillColor=#e1d5e7;strokeColor=#9673a6;" edge="1" parent="8Ahr5EPA_3hy_OYwfrjX-1">
                    <mxGeometry width="50" height="50" relative="1" as="geometry">
                        <mxPoint x="159" y="344" as="sourcePoint"/>
                        <mxPoint x="331" y="198" as="targetPoint"/>
                        <Array as="points">
                            <mxPoint x="328" y="336"/>
                        </Array>
                    </mxGeometry>
                </mxCell>
                <mxCell id="85A45jcsd8lMDTzNHtMe-0" value="" style="curved=1;endArrow=classic;html=1;strokeColor=#9673a6;exitX=0.928;exitY=1.067;exitDx=0;exitDy=0;exitPerimeter=0;entryX=0.992;entryY=0.756;entryDx=0;entryDy=0;entryPerimeter=0;fillColor=#e1d5e7;" edge="1" parent="8Ahr5EPA_3hy_OYwfrjX-1">
                    <mxGeometry width="50" height="50" relative="1" as="geometry">
                        <mxPoint x="431.3599999999999" y="202.67999999999995" as="sourcePoint"/>
                        <mxPoint x="159.36" y="342.67999999999995" as="targetPoint"/>
                        <Array as="points">
                            <mxPoint x="380" y="410"/>
                        </Array>
                    </mxGeometry>
                </mxCell>
                <mxCell id="85A45jcsd8lMDTzNHtMe-1" value="" style="curved=1;endArrow=classic;html=1;strokeColor=#A50040;exitX=0.928;exitY=1.067;exitDx=0;exitDy=0;exitPerimeter=0;entryX=0.992;entryY=0.872;entryDx=0;entryDy=0;entryPerimeter=0;fillColor=#d80073;" edge="1" parent="8Ahr5EPA_3hy_OYwfrjX-1" target="zL_X2VONhH5JatA1CUuz-4">
                    <mxGeometry width="50" height="50" relative="1" as="geometry">
                        <mxPoint x="451.9999999999999" y="199.99999999999994" as="sourcePoint"/>
                        <mxPoint x="180" y="339.99999999999994" as="targetPoint"/>
                        <Array as="points">
                            <mxPoint x="400.64" y="407.32"/>
                        </Array>
                    </mxGeometry>
                </mxCell>
                <mxCell id="85A45jcsd8lMDTzNHtMe-4" style="edgeStyle=orthogonalEdgeStyle;rounded=0;orthogonalLoop=1;jettySize=auto;html=1;exitX=0;exitY=0;exitDx=0;exitDy=0;entryX=0.702;entryY=1.067;entryDx=0;entryDy=0;entryPerimeter=0;" edge="1" parent="8Ahr5EPA_3hy_OYwfrjX-1" source="85A45jcsd8lMDTzNHtMe-2" target="zL_X2VONhH5JatA1CUuz-0">
                    <mxGeometry relative="1" as="geometry">
                        <Array as="points">
                            <mxPoint x="453" y="250"/>
                        </Array>
                    </mxGeometry>
                </mxCell>
                <mxCell id="85A45jcsd8lMDTzNHtMe-2" value="&lt;font style=&quot;font-size: 10px&quot;&gt;Position&lt;br&gt;(NON CMD)&lt;/font&gt;" style="text;html=1;fillColor=none;align=center;verticalAlign=middle;whiteSpace=wrap;rounded=0;strokeColor=#f0f0f0;" vertex="1" parent="8Ahr5EPA_3hy_OYwfrjX-1">
                    <mxGeometry x="453" y="250" width="90" height="50" as="geometry"/>
                </mxCell>
                <mxCell id="fkjYtxzrISenkNyQIOpG-0" value="\textbf&lt;br&gt;\test&lt;br&gt;\..." style="text;html=1;strokeColor=none;fillColor=none;align=center;verticalAlign=middle;whiteSpace=wrap;rounded=0;" vertex="1" parent="8Ahr5EPA_3hy_OYwfrjX-1">
                    <mxGeometry x="280" y="100" width="40" height="20" as="geometry"/>
                </mxCell>
                <mxCell id="fkjYtxzrISenkNyQIOpG-1" value="{" style="text;html=1;strokeColor=none;fillColor=none;align=center;verticalAlign=middle;whiteSpace=wrap;rounded=0;" vertex="1" parent="8Ahr5EPA_3hy_OYwfrjX-1">
                    <mxGeometry x="310" y="169" width="40" height="20" as="geometry"/>
                </mxCell>
                <mxCell id="fkjYtxzrISenkNyQIOpG-2" value="}" style="text;html=1;strokeColor=none;fillColor=none;align=center;verticalAlign=middle;whiteSpace=wrap;rounded=0;" vertex="1" parent="8Ahr5EPA_3hy_OYwfrjX-1">
                    <mxGeometry x="410" y="169" width="40" height="20" as="geometry"/>
                </mxCell>
            </root>
        </mxGraphModel>
    </diagram>
    <diagram id="xj0X5si8ZdLzqVQ2Ff5A" name="Comment">
        <mxGraphModel dx="734" dy="469" grid="1" gridSize="10" guides="1" tooltips="1" connect="1" arrows="1" fold="1" page="1" pageScale="1" pageWidth="827" pageHeight="1169" math="0" shadow="0">
            <root>
                <mxCell id="ypTGZDj-Aiv8wVBHmuzq-0"/>
                <mxCell id="ypTGZDj-Aiv8wVBHmuzq-1" parent="ypTGZDj-Aiv8wVBHmuzq-0"/>
                <mxCell id="aU2nHpVJpErvQzvn7stc-0" value="" style="rounded=0;whiteSpace=wrap;html=1;" parent="ypTGZDj-Aiv8wVBHmuzq-1" vertex="1">
                    <mxGeometry x="80" y="200" width="600" height="40" as="geometry"/>
                </mxCell>
                <mxCell id="aU2nHpVJpErvQzvn7stc-1" value="" style="shape=process;whiteSpace=wrap;html=1;backgroundOutline=1;size=0.16666666666666666;fillColor=#000099;" parent="ypTGZDj-Aiv8wVBHmuzq-1" vertex="1">
                    <mxGeometry x="200" y="200" width="120" height="40" as="geometry"/>
                </mxCell>
                <mxCell id="aU2nHpVJpErvQzvn7stc-2" value="" style="shape=process;whiteSpace=wrap;html=1;backgroundOutline=1;fillColor=#004C99;size=0.05;" parent="ypTGZDj-Aiv8wVBHmuzq-1" vertex="1">
                    <mxGeometry x="440" y="200" width="200" height="40" as="geometry"/>
                </mxCell>
                <mxCell id="aU2nHpVJpErvQzvn7stc-3" value="" style="shape=process;whiteSpace=wrap;html=1;backgroundOutline=1;size=0.25;fillColor=#33FF33;" parent="ypTGZDj-Aiv8wVBHmuzq-1" vertex="1">
                    <mxGeometry x="480" y="200" width="120" height="40" as="geometry"/>
                </mxCell>
                <mxCell id="aU2nHpVJpErvQzvn7stc-4" value="" style="curved=1;endArrow=classic;html=1;" parent="ypTGZDj-Aiv8wVBHmuzq-1" edge="1">
                    <mxGeometry width="50" height="50" relative="1" as="geometry">
                        <mxPoint x="210" y="160" as="sourcePoint"/>
                        <mxPoint x="210" y="200" as="targetPoint"/>
                        <Array as="points"/>
                    </mxGeometry>
                </mxCell>
                <mxCell id="aU2nHpVJpErvQzvn7stc-5" value="" style="curved=1;endArrow=classic;html=1;" parent="ypTGZDj-Aiv8wVBHmuzq-1" edge="1">
                    <mxGeometry width="50" height="50" relative="1" as="geometry">
                        <mxPoint x="310" y="160" as="sourcePoint"/>
                        <mxPoint x="310" y="200" as="targetPoint"/>
                        <Array as="points"/>
                    </mxGeometry>
                </mxCell>
                <mxCell id="aU2nHpVJpErvQzvn7stc-6" value="" style="curved=1;endArrow=classic;html=1;fillColor=#60a917;strokeColor=#2D7600;" parent="ypTGZDj-Aiv8wVBHmuzq-1" edge="1">
                    <mxGeometry width="50" height="50" relative="1" as="geometry">
                        <mxPoint x="445" y="160" as="sourcePoint"/>
                        <mxPoint x="445" y="200" as="targetPoint"/>
                        <Array as="points"/>
                    </mxGeometry>
                </mxCell>
                <mxCell id="aU2nHpVJpErvQzvn7stc-7" value="" style="curved=1;endArrow=classic;html=1;fillColor=#60a917;strokeColor=#2D7600;" parent="ypTGZDj-Aiv8wVBHmuzq-1" edge="1">
                    <mxGeometry width="50" height="50" relative="1" as="geometry">
                        <mxPoint x="635" y="160" as="sourcePoint"/>
                        <mxPoint x="635" y="200" as="targetPoint"/>
                        <Array as="points"/>
                    </mxGeometry>
                </mxCell>
                <mxCell id="aU2nHpVJpErvQzvn7stc-8" value="" style="curved=1;endArrow=classic;html=1;fillColor=#1ba1e2;strokeColor=#006EAF;" parent="ypTGZDj-Aiv8wVBHmuzq-1" edge="1">
                    <mxGeometry width="50" height="50" relative="1" as="geometry">
                        <mxPoint x="494" y="160" as="sourcePoint"/>
                        <mxPoint x="494" y="200" as="targetPoint"/>
                        <Array as="points"/>
                    </mxGeometry>
                </mxCell>
                <mxCell id="aU2nHpVJpErvQzvn7stc-9" value="" style="curved=1;endArrow=classic;html=1;fillColor=#1ba1e2;strokeColor=#006EAF;" parent="ypTGZDj-Aiv8wVBHmuzq-1" edge="1">
                    <mxGeometry width="50" height="50" relative="1" as="geometry">
                        <mxPoint x="585" y="160" as="sourcePoint"/>
                        <mxPoint x="585" y="200" as="targetPoint"/>
                        <Array as="points"/>
                    </mxGeometry>
                </mxCell>
                <mxCell id="aU2nHpVJpErvQzvn7stc-10" value="&amp;nbsp; &amp;nbsp; &amp;nbsp; &amp;nbsp; &amp;nbsp; &amp;nbsp; If it's comment (between '%' and '\n'), &lt;br&gt;&amp;nbsp; &amp;nbsp;%&amp;nbsp; &amp;nbsp; &amp;nbsp; &amp;nbsp; &amp;nbsp; &amp;nbsp; &amp;nbsp;they will not be covered&lt;br&gt;&amp;nbsp; &amp;nbsp; &amp;nbsp; &amp;nbsp; &amp;nbsp; &amp;nbsp; &amp;nbsp; &amp;nbsp; &amp;nbsp; when I search the braces." style="rounded=0;whiteSpace=wrap;html=1;align=left;" parent="ypTGZDj-Aiv8wVBHmuzq-1" vertex="1">
                    <mxGeometry x="400" y="220" width="280" height="50" as="geometry"/>
                </mxCell>
            </root>
        </mxGraphModel>
    </diagram>
</mxfile>